<svg xmlns="http://www.w3.org/2000/svg" viewBox="-8 -37 136 136">
  <!-- Роза из src/js/mark.js на фоне тёмной темы. Файл пишет scripts/make-icons.py. -->
  <defs>
    <linearGradient id="st" x1="0" y1="0" x2="0" y2="1"><stop offset="0" stop-color="#e6ecff"/><stop offset="1" stop-color="#5f82e8"/></linearGradient>
    <linearGradient id="lf" x1="0" y1="0" x2="1" y2="0"><stop offset="0" stop-color="#e6ecff"/><stop offset="1" stop-color="#5f82e8"/></linearGradient>
  </defs>
  <rect x="-8" y="-37" width="136" height="136" fill="#17120f"/>
  <g fill="url(#lf)">
    <path d="M0 0C10-8 28-8 44 0C28 6 10 6 0 0Z" transform="translate(41 40) rotate(156) scale(.62)"/>
    <path d="M0 0C10-8 28-8 44 0C28 6 10 6 0 0Z" transform="translate(79 40) scale(-1 1) rotate(156) scale(.62)"/>
  </g>
  <g transform="translate(60 31) scale(.95)" fill="url(#st)">
    <path d="M-12 3C-9-10 9-10 12 3C7-1-7-1-12 3Z" transform="rotate(10) translate(0 -3) scale(0.3)"/><path d="M-12 3C-9-10 9-10 12 3C7-1-7-1-12 3Z" transform="rotate(110) translate(0 -4.8) scale(0.39)"/><path d="M-12 3C-9-10 9-10 12 3C7-1-7-1-12 3Z" transform="rotate(210) translate(0 -6.6) scale(0.47)"/><path d="M-12 3C-9-10 9-10 12 3C7-1-7-1-12 3Z" transform="rotate(310) translate(0 -8.4) scale(0.55)"/><path d="M-12 3C-9-10 9-10 12 3C7-1-7-1-12 3Z" transform="rotate(410) translate(0 -10.2) scale(0.64)"/><path d="M-12 3C-9-10 9-10 12 3C7-1-7-1-12 3Z" transform="rotate(510) translate(0 -12) scale(0.72)"/><path d="M-12 3C-9-10 9-10 12 3C7-1-7-1-12 3Z" transform="rotate(610) translate(0 -13.8) scale(0.81)"/><path d="M-12 3C-9-10 9-10 12 3C7-1-7-1-12 3Z" transform="rotate(710) translate(0 -15.6) scale(0.9)"/><path d="M-12 3C-9-10 9-10 12 3C7-1-7-1-12 3Z" transform="rotate(810) translate(0 -17.4) scale(0.98)"/><path d="M-12 3C-9-10 9-10 12 3C7-1-7-1-12 3Z" transform="rotate(910) translate(0 -19.2) scale(1.06)"/><path d="M-12 3C-9-10 9-10 12 3C7-1-7-1-12 3Z" transform="rotate(1010) translate(0 -21) scale(1.15)"/>
    <circle r="2.6" fill="#e6ecff"/>
  </g>
</svg>
